<mxfile host="Electron" agent="Mozilla/5.0 (X11; Linux x86_64) AppleWebKit/537.36 (KHTML, like Gecko) draw.io/26.0.4 Chrome/128.0.6613.186 Electron/32.2.5 Safari/537.36" version="26.0.4">
  <diagram name="Страница — 1" id="4eQl_4oQEfPdJTHodepV">
    <mxGraphModel dx="2360" dy="1458" grid="1" gridSize="10" guides="1" tooltips="1" connect="1" arrows="1" fold="1" page="1" pageScale="1" pageWidth="827" pageHeight="1169" math="0" shadow="0">
      <root>
        <mxCell id="0" />
        <mxCell id="1" parent="0" />
        <mxCell id="PomNRXk2Ju83dw5UV4uq-10" style="edgeStyle=orthogonalEdgeStyle;rounded=0;orthogonalLoop=1;jettySize=auto;html=1;entryX=0.5;entryY=0;entryDx=0;entryDy=0;" edge="1" parent="1" source="PomNRXk2Ju83dw5UV4uq-1" target="PomNRXk2Ju83dw5UV4uq-2">
          <mxGeometry relative="1" as="geometry" />
        </mxCell>
        <mxCell id="PomNRXk2Ju83dw5UV4uq-1" value="build and push" style="rounded=0;whiteSpace=wrap;html=1;" vertex="1" parent="1">
          <mxGeometry x="340" y="320" width="120" height="60" as="geometry" />
        </mxCell>
        <mxCell id="PomNRXk2Ju83dw5UV4uq-11" style="edgeStyle=orthogonalEdgeStyle;rounded=0;orthogonalLoop=1;jettySize=auto;html=1;entryX=0.5;entryY=0;entryDx=0;entryDy=0;" edge="1" parent="1" source="PomNRXk2Ju83dw5UV4uq-2" target="PomNRXk2Ju83dw5UV4uq-5">
          <mxGeometry relative="1" as="geometry" />
        </mxCell>
        <mxCell id="PomNRXk2Ju83dw5UV4uq-2" value="Deploy" style="rounded=0;whiteSpace=wrap;html=1;" vertex="1" parent="1">
          <mxGeometry x="340" y="410" width="120" height="60" as="geometry" />
        </mxCell>
        <mxCell id="PomNRXk2Ju83dw5UV4uq-9" style="edgeStyle=orthogonalEdgeStyle;rounded=0;orthogonalLoop=1;jettySize=auto;html=1;entryX=0.5;entryY=0;entryDx=0;entryDy=0;" edge="1" parent="1" source="PomNRXk2Ju83dw5UV4uq-3" target="PomNRXk2Ju83dw5UV4uq-1">
          <mxGeometry relative="1" as="geometry" />
        </mxCell>
        <mxCell id="PomNRXk2Ju83dw5UV4uq-3" value="Tests" style="rounded=0;whiteSpace=wrap;html=1;" vertex="1" parent="1">
          <mxGeometry x="340" y="230" width="120" height="60" as="geometry" />
        </mxCell>
        <mxCell id="PomNRXk2Ju83dw5UV4uq-8" style="edgeStyle=orthogonalEdgeStyle;rounded=0;orthogonalLoop=1;jettySize=auto;html=1;entryX=0.5;entryY=0;entryDx=0;entryDy=0;" edge="1" parent="1" source="PomNRXk2Ju83dw5UV4uq-4" target="PomNRXk2Ju83dw5UV4uq-3">
          <mxGeometry relative="1" as="geometry" />
        </mxCell>
        <mxCell id="PomNRXk2Ju83dw5UV4uq-14" style="edgeStyle=orthogonalEdgeStyle;rounded=0;orthogonalLoop=1;jettySize=auto;html=1;entryX=0;entryY=0.5;entryDx=0;entryDy=0;" edge="1" parent="1" source="PomNRXk2Ju83dw5UV4uq-4" target="PomNRXk2Ju83dw5UV4uq-12">
          <mxGeometry relative="1" as="geometry" />
        </mxCell>
        <mxCell id="PomNRXk2Ju83dw5UV4uq-4" value="&lt;h3 dir=&quot;auto&quot; class=&quot;heading-element&quot; tabindex=&quot;-1&quot;&gt;SAST&lt;/h3&gt;" style="rounded=0;whiteSpace=wrap;html=1;" vertex="1" parent="1">
          <mxGeometry x="340" y="140" width="120" height="60" as="geometry" />
        </mxCell>
        <mxCell id="PomNRXk2Ju83dw5UV4uq-15" style="edgeStyle=orthogonalEdgeStyle;rounded=0;orthogonalLoop=1;jettySize=auto;html=1;entryX=0.5;entryY=1;entryDx=0;entryDy=0;" edge="1" parent="1" source="PomNRXk2Ju83dw5UV4uq-5" target="PomNRXk2Ju83dw5UV4uq-12">
          <mxGeometry relative="1" as="geometry" />
        </mxCell>
        <mxCell id="PomNRXk2Ju83dw5UV4uq-5" value="&lt;h3 dir=&quot;auto&quot; class=&quot;heading-element&quot; tabindex=&quot;-1&quot;&gt;Dast&lt;/h3&gt;" style="rounded=0;whiteSpace=wrap;html=1;" vertex="1" parent="1">
          <mxGeometry x="340" y="500" width="120" height="60" as="geometry" />
        </mxCell>
        <mxCell id="PomNRXk2Ju83dw5UV4uq-7" style="edgeStyle=orthogonalEdgeStyle;rounded=0;orthogonalLoop=1;jettySize=auto;html=1;entryX=0.5;entryY=0;entryDx=0;entryDy=0;" edge="1" parent="1" source="PomNRXk2Ju83dw5UV4uq-6" target="PomNRXk2Ju83dw5UV4uq-4">
          <mxGeometry relative="1" as="geometry" />
        </mxCell>
        <mxCell id="PomNRXk2Ju83dw5UV4uq-13" style="edgeStyle=orthogonalEdgeStyle;rounded=0;orthogonalLoop=1;jettySize=auto;html=1;entryX=0.5;entryY=0;entryDx=0;entryDy=0;" edge="1" parent="1" source="PomNRXk2Ju83dw5UV4uq-6" target="PomNRXk2Ju83dw5UV4uq-12">
          <mxGeometry relative="1" as="geometry">
            <Array as="points">
              <mxPoint x="670" y="80" />
            </Array>
          </mxGeometry>
        </mxCell>
        <mxCell id="PomNRXk2Ju83dw5UV4uq-6" value="&lt;h3 dir=&quot;auto&quot; class=&quot;heading-element&quot; tabindex=&quot;-1&quot;&gt;Security Checks&lt;/h3&gt;" style="rounded=0;whiteSpace=wrap;html=1;" vertex="1" parent="1">
          <mxGeometry x="340" y="50" width="120" height="60" as="geometry" />
        </mxCell>
        <mxCell id="PomNRXk2Ju83dw5UV4uq-12" value="&lt;h3 dir=&quot;auto&quot; class=&quot;heading-element&quot; tabindex=&quot;-1&quot;&gt;Security Gateway&amp;nbsp;&lt;/h3&gt;" style="rounded=0;whiteSpace=wrap;html=1;" vertex="1" parent="1">
          <mxGeometry x="610" y="270" width="120" height="60" as="geometry" />
        </mxCell>
      </root>
    </mxGraphModel>
  </diagram>
</mxfile>
